<?xml version="1.0" encoding="UTF-8"?>
<svg width="141px" height="141px" viewBox="0 0 141 141" version="1.1" xmlns="http://www.w3.org/2000/svg" xmlns:xlink="http://www.w3.org/1999/xlink">
    <!-- Generator: Sketch 53 (72520) - https://sketchapp.com -->
    <title>LOGO1</title>
    <desc>Created with Sketch.</desc>
    <g id="Page-1" stroke="none" stroke-width="1" fill="none" fill-rule="evenodd">
        <g id="LOGO1" transform="translate(2.000000, 3.000000)">
            <circle id="Oval" fill="#94C53E" fill-rule="nonzero" cx="67.79" cy="84.82" r="16.99"></circle>
            <circle id="Oval" fill="#94C53E" fill-rule="nonzero" cx="67.79" cy="50.83" r="16.99"></circle>
            <path d="M134.34,55.87 C139.076087,83.6633572 125.946053,111.45541 101.468986,125.44735 C76.9919188,139.439291 46.3811119,136.65102 24.8348893,118.466919 C3.28866667,100.282819 -4.60390901,70.5758632 5.0758411,44.0956128 C14.7555912,17.6153624 39.9460074,0.00176291232 68.14,-2.8421723e-14 C81.1538857,-0.018510303 93.8906297,3.75907241 104.79,10.87" id="Path" stroke="#11474A" stroke-width="6" stroke-linecap="round"></path>
            <path d="M119.13,23.46 C122.873435,27.8245009 126.042543,32.6504178 128.56,37.82" id="Path" stroke="#11474A" stroke-width="6" stroke-linecap="round"></path>
            <path d="M68.03,116.69 L68.03,101.53" id="Path" stroke="#664319" stroke-width="7" stroke-linecap="round"></path>
            <path d="M67.41,65.38 C76.52,67.96 85.8,73.5 85.8,82.38 L85.8,84.97 C85.7725491,93.8338205 78.5938205,101.012549 69.73,101.04 L67.15,101.04 C58.2861795,101.012549 51.1074509,93.8338205 51.08,84.97" id="Path" stroke="#15474A" stroke-width="10" stroke-linecap="round"></path>
            <path d="M67.47,16.25 L67.47,31.41" id="Path" stroke="#664319" stroke-width="7" stroke-linecap="round"></path>
            <path d="M66.81,65.23 C58.11,62.79 49.69,59.44 49.69,50.6 L49.69,48.02 C49.7174509,39.1561795 56.8961795,31.9774509 65.76,31.95 L68.35,31.95 C77.2121873,31.9774782 84.3880383,39.1577973 84.41,48.02" id="Path" stroke="#15474A" stroke-width="10" stroke-linecap="round"></path>
        </g>
    </g>
</svg>