<svg id="verde" xmlns="http://www.w3.org/2000/svg" viewBox="0 0 239.07 167.91"><defs><style>.cls-1{fill:#0a5657;}.cls-2{fill:#94c53e;}</style></defs><title>LOGO_verde</title><path class="cls-1" d="M362,388.2a54.19,54.19,0,0,0-38.44,15.92,66.94,66.94,0,0,1,32.73,92.52,53.75,53.75,0,0,0,5.71.3,54.37,54.37,0,0,0,0-108.74Z" transform="translate(-177.28 -388.2)"/><path class="cls-1" d="M230,465.57a67,67,0,0,1,40.14-61.35,54.39,54.39,0,1,0-32.51,92.38A66.57,66.57,0,0,1,230,465.57Z" transform="translate(-177.28 -388.2)"/><circle class="cls-2" cx="119.68" cy="77.03" r="58.23"/><path class="cls-1" d="M360.34,502.65c-1.64,0-3.25-.07-4.85-.18v21.12c0,2.3,2.32,4.19,5.15,4.19s5.14-1.89,5.14-4.19V502.43C364,502.57,362.17,502.65,360.34,502.65Z" transform="translate(-177.28 -388.2)"/><path class="cls-1" d="M233.59,502.65c-1.63,0-3.24-.07-4.84-.18v21.12c0,2.3,2.32,4.19,5.14,4.19s5.15-1.89,5.15-4.19V502.43C237.24,502.57,235.43,502.65,233.59,502.65Z" transform="translate(-177.28 -388.2)"/><g id="Livello_6" data-name="Livello 6"><path class="cls-1" d="M296,531c-1.64,0-3.25-.07-4.85-.18v21.12c0,2.3,2.32,4.19,5.15,4.19s5.14-1.89,5.14-4.19V530.78C299.61,530.91,297.79,531,296,531Z" transform="translate(-177.28 -388.2)"/></g></svg>