<?xml version="1.0" encoding="UTF-8"?>
<svg width="458px" height="99px" viewBox="0 0 458 99" version="1.1" xmlns="http://www.w3.org/2000/svg" xmlns:xlink="http://www.w3.org/1999/xlink">
    <!-- Generator: Sketch 53 (72520) - https://sketchapp.com -->
    <title>TEXT@1,5x</title>
    <desc>Created with Sketch.</desc>
    <g id="Page-1" stroke="none" stroke-width="1" fill="none" fill-rule="evenodd">
        <g id="TEXT" fill-rule="nonzero">
            <path d="M32.9429406,98.9945325 C24.1739464,99.1566922 15.7236925,95.7056786 9.57222027,89.4501241 C3.44579906,83.3671193 0,75.0882837 0,66.4520222 C0,57.8157607 3.44579906,49.5369251 9.57222027,43.4539203 C15.7482944,37.2569954 24.1808026,33.8452807 32.9255193,34.0053918 C38.5088874,33.9648591 44.0133527,35.3253916 48.9357258,37.9626168 C53.7331557,40.482316 57.7988026,44.1993324 60.73868,48.7534639 L47.0280897,56.7463612 C42.7408812,50.6209224 34.9891235,47.9700361 27.8521754,50.1887301 C20.7152274,52.4074241 15.8292573,58.9870557 15.7655047,66.4650967 C15.7228486,71.0157195 17.5456241,75.3850466 20.8089811,78.5546807 C23.9542576,81.8800547 28.359837,83.7169114 32.93423,83.6101664 C39.3220526,83.6101664 44.1477623,80.9458674 47.411359,75.6172692 L61,83.7409118 C58.0151577,88.3644506 53.9411901,92.18367 49.1360711,94.8629804 C44.2029321,97.6599972 38.6122019,99.0864288 32.9429406,98.9945325 Z" id="Path" fill="#11474A"></path>
            <path d="M118.975079,97.2691787 L118.975079,93.268567 C114.270037,97.0861442 108.546437,98.9949328 101.80428,98.9949328 C93.0740597,99.1509023 84.6630909,95.7004594 78.5394968,89.4509898 C72.4340193,83.3682817 69,75.0898498 69,66.4540095 C69,57.8181692 72.4340193,49.5397373 78.5394968,43.4570292 C84.6917883,37.2617494 93.0922651,33.8502293 101.80428,34.0089614 C108.020958,33.8471989 114.097233,35.8797714 118.975079,39.7527591 L118.975079,35.1594642 L135,35.1594642 L135,97.2691787 L118.975079,97.2691787 Z M84.7029282,66.4670834 C84.6604179,71.0174843 86.4769621,75.3865983 89.729163,78.5560778 C92.8851007,81.8921653 97.301322,83.7291278 101.882408,83.611317 C106.451485,83.6654137 110.843328,81.8385913 114.035653,78.5560778 C117.232439,75.3576232 119.018475,71.0057778 118.994001,66.474595 C118.969527,61.9434122 117.136587,57.6112717 113.905439,54.4478164 C110.711895,51.2121192 106.362991,49.3918433 101.825982,49.3918433 C97.2889735,49.3918433 92.9400688,51.2121192 89.7465248,54.4478164 C86.4847796,57.5833316 84.6593919,61.9333666 84.7029282,66.4670834 L84.7029282,66.4670834 Z" id="Shape" fill="#94C53D"></path>
            <path d="M155,98 L155,35.166021 L171.085533,35.166021 L171.085533,39.8128785 C173.961437,37.6704275 177.22214,36.1131699 180.686232,35.2277439 C184.090116,34.3753792 188.861372,33.9668319 195,34.0021022 L195,49.5651071 C182.641283,49.5651071 175.205106,52.0428433 172.691468,56.9983157 C171.620845,59.1968289 171.085533,62.2741597 171.085533,66.2303078 L171.085533,97.9735473 L155,98 Z" id="Path" fill="#94C53D"></path>
            <path d="M208,97.2725056 L208,0 L224.025389,0 L224.025389,39.4347996 C228.733119,35.5906369 234.459988,33.6656345 241.205997,33.6597923 C249.913082,33.4845401 258.310774,36.917908 264.44064,43.1591973 C270.683976,49.1636583 274.149148,57.5319719 273.995072,66.2329367 C273.983799,74.9743008 270.515577,83.3497306 264.359834,89.5011292 C258.204091,95.6525277 249.869824,99.0712587 241.205997,98.9988735 C234.431035,98.9988735 228.712852,97.0797133 224.051447,93.2413928 L224.051447,97.2637423 L208,97.2725056 Z M229.245584,78.6505169 C232.428527,81.8593984 236.767918,83.6245491 241.266798,83.5404321 C245.815152,83.6079042 250.181607,81.7407842 253.296697,78.3963816 C256.496591,75.1784457 258.283225,70.7998893 258.256316,66.2417 C258.129068,56.8105411 250.55438,49.2111435 241.205997,49.1357603 C236.7266,49.0602731 232.409269,50.8253778 229.245584,54.0256754 C226.02188,57.0099697 224.140456,61.1891692 224.034075,65.6019799 L224.034075,67.0742124 C224.177488,71.478375 226.052701,75.6437768 229.245584,78.6505169 Z" id="Shape" fill="#94C53D"></path>
            <path d="M316.999632,34.011158 C325.768187,33.7790756 334.243347,37.1760115 340.420831,43.3986269 C346.573151,49.5049201 350.022831,57.8182776 349.999886,66.4831208 C349.976942,75.1479641 346.483282,83.4429636 340.298709,89.5166382 C327.295768,102.184799 306.548192,102.157704 293.578434,89.455624 C287.447676,83.3703436 284,75.0924111 284,66.4576326 C284,57.8228541 287.447676,49.5449215 293.578434,43.4596411 C299.772255,37.2547929 308.23071,33.8425177 316.999632,34.011158 L316.999632,34.011158 Z M299.780472,66.470707 C299.737755,71.021308 301.563107,75.3906141 304.831077,78.560233 C308.001043,81.8983179 312.43954,83.7357183 317.043247,83.6156944 C321.634478,83.6697935 326.047615,81.8428908 329.255418,78.560233 C332.467703,75.3616377 334.262399,71.009601 334.237807,66.478219 C334.213215,61.9468369 332.371387,57.6145059 329.124573,54.4509116 C325.915545,51.2150721 321.545554,49.3947161 316.986548,49.3947161 C312.427541,49.3947161 308.057551,51.2150721 304.848522,54.4509116 C301.570963,57.5865646 299.736724,61.9367909 299.780472,66.470707 Z" id="Shape" fill="#11474A"></path>
            <path d="M373.093172,24.3032791 C370.398605,24.3718444 367.79618,23.3051343 365.903338,21.3562329 C362.032221,17.3329304 362.032221,10.9066528 365.903338,6.88335032 C367.81515,4.9714845 370.411093,3.93269105 373.093172,4.00626369 C375.761574,3.90879482 378.347891,4.95248564 380.222732,6.88335032 C382.076422,8.81464399 383.07726,11.4283866 382.995339,14.1241641 C383.069078,16.8366698 382.070605,19.4662791 380.222732,21.4261925 C378.36846,23.3883462 375.767759,24.4378417 373.093172,24.3032791 Z M365.085332,97 L365.085332,34.6835278 L380.980463,34.6835278 L380.980463,97 L365.085332,97 Z" id="Shape" fill="#11474A"></path>
            <path d="M441.854484,98 L441.854484,64.4216037 C441.854484,54.5632406 437.557902,49.6105447 428.964738,49.5635161 C420.371574,49.5164876 416.101244,54.3810049 416.153748,64.1570681 L416.153748,98 L400,98 L400,35.163957 L416.153748,35.163957 L416.153748,39.8109672 C420.83865,36.1061269 426.606281,34.0634344 432.561266,34 C439.993507,34 446.101479,36.2808855 450.885182,40.8426564 C455.668885,45.4044273 458.040318,52.3675944 457.999482,61.7321576 L457.999482,97.9647286 L441.854484,98 Z" id="Path" fill="#11474A"></path>
        </g>
    </g>
</svg>